{"title":"Vlado Georgiev - Zivim sad [2013] [Video]","uid":8068343,"size":72699904,"categoryP":"video","categoryS":"music_videos","magnet":"?xt=urn:btih:c174e75d9f6eb23d1c2ad22b666f67f112e95739&amp;dn=Vlado+Georgiev+-+Zivim+sad+%5B2013%5D+%5BVideo%5D&amp;tr=udp%3A%2F%2Ftracker.openbittorrent.com%3A80&amp;tr=udp%3A%2F%2Fopen.demonii.com%3A1337&amp;tr=udp%3A%2F%2Ftracker.coppersurfer.tk%3A6969&amp;tr=udp%3A%2F%2Fexodus.desync.com%3A6969","seeders":1,"leechers":1,"uploader":"MaXLinE","files":1,"time":1359223180,"description":"----------------------------------\n\nVLADO GEORGIEV - ZIVIM SAD\n\n2013\n\nFORMAT: MPG (kompatibilan)\n\n----------------------------------\n\nINFO:\n\nFormat                                   : MPEG-PS\nFile size                                : 69.3 MiB\nDuration                                 : 5mn 34s\nOverall bit rate mode                    : Variable\nOverall bit rate                         : 1 740 Kbps\n\nVideo\nID                                       : 224 (0xE0)\nFormat                                   : MPEG Video\nFormat version                           : Version 1\nFormat settings, BVOP                    : No\nFormat settings, Matrix                  : Default\nFormat settings, GOP                     : N=12\nDuration                                 : 5mn 34s\nBit rate mode                            : Variable\nBit rate                                 : 1 577 Kbps\nWidth                                    : 720 pixels\nHeight                                   : 408 pixels\nDisplay aspect ratio                     : 16:9\nFrame rate                               : 25.000 fps\nColor space                              : YUV\nBit depth                                : 8 bits\nScan type                                : Progressive\nCompression mode                         : Lossy\nBits/(Pixel*Frame)                       : 0.215\nStream size                              : 62.8 MiB (91%)\n\nAudio\nID                                       : 192 (0xC0)\nFormat                                   : MPEG Audio\nFormat version                           : Version 1\nFormat profile                           : Layer 2\nDuration                                 : 5mn 34s\nBit rate mode                            : Constant\nBit rate                                 : 128 Kbps\nChannel(s)                               : 2 channels\nSampling rate                            : 44.1 KHz\nCompression mode                         : Lossy\nStream size                              : 5.10 MiB (7%)\n\n---------------------------------------------------------------\n\nSAMPLE:\n\n\n---------------------------------------------------------------\n\n- VLADO GEORGIEV I NJEGOVA NOVA PESMA. KLIP IZ EMISIJE -VECE SA IVANOM IVANOVICEM-, POSTAVLJEN ZA LJUDE KOJI ZELE DA IMAJU U SVOJOJ KOLEKCIJI, TORRENT SEEDUJEM SA SOPSTVENOG PC-JA, TAKO DA OVAJ TORRENT CE ISKLJUCIVO ZAVISITI OD LJUDI KOJI BUDU PREUZELI OD MENE, I TAKO DALJE. UGODAN DOWNLOAD.\n\nMAXLINE @ SRBIJA","torrent":{"xt":"urn:btih:c174e75d9f6eb23d1c2ad22b666f67f112e95739","amp;dn":"Vlado+Georgiev+-+Zivim+sad+%5B2013%5D+%5BVideo%5D","amp;tr":["udp%3A%2F%2Ftracker.openbittorrent.com%3A80","udp%3A%2F%2Fopen.demonii.com%3A1337","udp%3A%2F%2Ftracker.coppersurfer.tk%3A6969","udp%3A%2F%2Fexodus.desync.com%3A6969"],"infoHash":"c174e75d9f6eb23d1c2ad22b666f67f112e95739","infoHashBuffer":{"type":"Buffer","data":[193,116,231,93,159,110,178,61,28,42,210,43,102,111,103,241,18,233,87,57]},"announce":[],"urlList":[]}}